<svg xmlns="http://www.w3.org/2000/svg" viewBox="0 0 512 512" width="512" height="512">
  <defs>
    <linearGradient id="bgGrad" x1="0%" y1="0%" x2="100%" y2="100%">
      <stop offset="0%" stop-color="#18181b"/>
      <stop offset="100%" stop-color="#09090b"/>
    </linearGradient>
    <linearGradient id="ticketGrad" x1="0%" y1="0%" x2="100%" y2="100%">
      <stop offset="0%" stop-color="#fef08a"/>
      <stop offset="100%" stop-color="#facc15"/>
    </linearGradient>
    <filter id="shadow" x="-10%" y="-10%" width="120%" height="120%">
      <feDropShadow dx="0" dy="8" stdDeviation="12" flood-color="#facc15" flood-opacity="0.3"/>
    </filter>
  </defs>
  
  <rect width="512" height="512" fill="url(#bgGrad)" rx="112" />

  <!-- The Ticket Shape (angled slightly for dynamism) -->
  <g transform="translate(256, 256) rotate(-15) translate(-256, -256)" filter="url(#shadow)">
    <!-- Main Ticket Body -->
    <path d="M 128 140 C 128 120, 144 104, 164 104 L 348 104 C 368 104, 384 120, 384 140 L 384 180 A 32 32 0 0 1 352 212 A 32 32 0 0 1 384 244 L 384 268 A 32 32 0 0 1 352 300 A 32 32 0 0 1 384 332 L 384 372 C 384 392, 368 408, 348 408 L 164 408 C 144 408, 128 392, 128 372 L 128 332 A 32 32 0 0 1 160 300 A 32 32 0 0 1 128 268 L 128 244 A 32 32 0 0 1 160 212 A 32 32 0 0 1 128 180 Z" 
          fill="url(#ticketGrad)" stroke="#eab308" stroke-width="4"/>
    
    <!-- Ticket Dash Line -->
    <line x1="180" y1="212" x2="332" y2="212" stroke="#ca8a04" stroke-width="6" stroke-dasharray="16,12" stroke-linecap="round"/>
    <line x1="180" y1="300" x2="332" y2="300" stroke="#ca8a04" stroke-width="6" stroke-dasharray="16,12" stroke-linecap="round"/>
    
    <!-- Scissors Icon inside the Ticket -->
    <g transform="translate(196, 220) scale(0.6)">
        <path d="M64 48L64 48c17.7 0 32 14.3 32 32L96 114.9C96 130 91.1 144.7 82 156.4L51.8 195.7c-9 11.6-13.8 26.2-13.8 41.3L38 288c0 17.7-14.3 32-32 32s-32-14.3-32-32l0-51c0-22.1 6.5-43.6 18.2-61.4L44 104 11.8 62.4C6.5 55.6 10.3 45.4 18.8 44.5L62.7 39.8C63.1 39.8 63.6 39.8 64 39.8C64 42.5 64 45.2 64 48z M192 48L192 48c0-2.8 0-5.5 0.4-8.2l43.9-4.7c8.5 0.9 12.3 11.1 7 18L191.1 104l51.8 71.6c11.7 17.8 18.2 39.3 18.2 61.4l0 51c0 17.7-14.3 32-32 32s-32-14.3-32-32l0-51c0-15.1-4.8-29.7-13.8-41.3l-30.2-39.3c-9.1-11.7-14-26.4-14-41.5l0-34.9c0-17.7 14.3-32 32-32zM128 320a32 32 0 1 0 -64 0 32 32 0 1 0 64 0zm64 32a32 32 0 1 0 0-64 32 32 0 1 0 0 64zm-80-64a48 48 0 1 1 -96 0 48 48 0 1 1 96 0zm144-48a48 48 0 1 1 0 96 48 48 0 1 1 0-96z" fill="#09090b"/>
    </g>
  </g>
</svg>
